<?xml version="1.0" encoding="UTF-8"?><svg id="_레이어_2" xmlns="http://www.w3.org/2000/svg" viewBox="0 0 339.1 49.1"><defs><style>.cls-1{fill:#fff;}</style></defs><g id="Layer_1"><g><rect class="cls-1" x="147.21" y="5.68" width="3.59" height="24.71"/><rect class="cls-1" x="194.99" y="5.62" width="3.59" height="24.77"/><polygon class="cls-1" points="81.75 9.96 78.87 9.96 78.87 5.66 75.27 5.66 75.27 23.06 78.87 23.06 78.87 13.55 81.75 13.55 81.75 9.96"/><path class="cls-1" d="M73.17,5.62h-5.1v-1.95h-3.6v1.95h-5.1v3.59h1.53c-.85,1.14-1.36,2.54-1.36,4.07,0,3.76,3.05,6.81,6.81,6.81s6.81-3.05,6.81-6.81c0-1.53-.51-2.94-1.36-4.07h1.37v-3.59Zm-6.82,10.58c-1.61,0-2.91-1.31-2.91-2.92s1.3-2.91,2.91-2.91,2.91,1.3,2.91,2.91-1.3,2.92-2.91,2.92Z"/><polygon class="cls-1" points="316.53 9.96 313.66 9.96 313.66 5.64 310.06 5.64 310.06 19.65 313.66 19.65 313.66 13.55 316.53 13.55 316.53 9.96"/><path class="cls-1" d="M307.96,5.62h-5.1v-1.95h-3.59v1.95h-5.1v3.59h1.53c-.85,1.14-1.36,2.54-1.36,4.07,0,3.76,3.05,6.81,6.81,6.81s6.81-3.05,6.81-6.81c0-1.53-.51-2.94-1.36-4.07h1.37v-3.59Zm-6.82,10.58c-1.61,0-2.91-1.31-2.91-2.92s1.31-2.91,2.91-2.91,2.92,1.3,2.92,2.91-1.31,2.92-2.92,2.92Z"/><polygon class="cls-1" points="63.84 26.79 63.84 22.22 60.24 22.22 60.24 28.97 61.66 30.39 62.72 30.39 63.84 30.39 79.32 30.39 79.32 26.79 63.84 26.79"/><polygon class="cls-1" points="104.84 18.51 104.84 14.92 102.82 14.92 102.82 7.03 101.41 5.62 100.34 5.62 99.23 5.62 84.63 5.62 84.63 9.21 99.23 9.21 99.23 14.92 83.07 14.92 83.07 18.51 92.21 18.51 92.21 21.32 84.63 21.32 84.63 24.92 99.23 24.92 99.23 30.46 102.82 30.46 102.82 22.73 101.41 21.32 100.34 21.32 99.23 21.32 95.81 21.32 95.81 18.51 104.84 18.51"/><polygon class="cls-1" points="310.09 25.31 310.09 30.57 313.69 30.57 313.69 23.14 312.27 21.72 311.21 21.72 310.09 21.72 295.12 21.72 295.12 25.31 310.09 25.31"/><polygon class="cls-1" points="123.52 5.68 123.52 19 111.33 19 111.33 9.22 121.04 9.22 121.04 5.63 107.74 5.63 107.74 8.56 107.74 8.56 107.74 21.18 109.16 22.59 110.22 22.59 111.33 22.59 123.52 22.59 123.52 30.39 127.12 30.39 127.12 5.68 123.52 5.68"/><polygon class="cls-1" points="266.6 22.33 266.6 7.03 265.19 5.62 264.12 5.62 263.01 5.62 248.42 5.62 248.42 9.21 263.01 9.21 263.01 22.33 256.84 22.33 256.84 15.28 253.25 15.28 253.25 22.33 247.65 22.33 247.65 25.93 268.65 25.93 268.65 22.33 266.6 22.33"/><polygon class="cls-1" points="337.13 22.28 337.13 7.03 335.71 5.62 334.65 5.62 333.53 5.62 319.15 5.62 319.15 9.21 333.53 9.21 333.53 22.28 330.62 22.28 330.62 16.16 327.03 16.16 327.03 22.28 324.4 22.28 324.4 16.16 320.81 16.16 320.81 22.28 318.2 22.28 318.2 25.87 339.1 25.87 339.1 22.28 337.13 22.28"/><polygon class="cls-1" points="217.96 5.68 217.96 19 205.78 19 205.78 9.2 214.88 9.2 214.88 5.61 202.21 5.61 202.21 8.56 202.18 8.56 202.18 21.18 203.6 22.59 204.67 22.59 205.78 22.59 217.96 22.59 217.96 30.39 221.56 30.39 221.56 5.68 217.96 5.68"/><path class="cls-1" d="M292,17.07h-21.73v3.59h5.95c-.8,1.09-1.27,2.44-1.27,3.9,0,3.65,2.96,6.61,6.61,6.61s6.62-2.96,6.62-6.61c0-1.46-.48-2.8-1.28-3.9h5.1v-3.59Zm-10.44,10.32c-1.56,0-2.83-1.27-2.83-2.83s1.27-2.83,2.83-2.83,2.83,1.27,2.83,2.83-1.27,2.83-2.83,2.83Z"/><polygon class="cls-1" points="274.63 15.24 275.74 15.24 290.33 15.24 290.33 12.15 275.74 12.15 275.74 8.97 290.27 8.97 290.27 5.6 272.19 5.6 272.19 6.07 272.14 6.07 272.14 13.83 273.56 15.24 274.63 15.24"/><path class="cls-1" d="M189.17,5.62h0s-10.44-.01-10.44-.01v15.57l1.41,1.41h11.64V5.62h-2.62Zm-.97,13.38h-5.87V9.2h5.87v9.8Z"/><rect class="cls-1" x="159.8" y="10.08" width="7.01" height="2.68"/><polygon class="cls-1" points="171.56 5.61 171.56 10.08 168.96 10.08 168.96 12.76 171.56 12.76 171.56 17.38 175.15 17.38 175.15 5.61 171.56 5.61"/><polygon class="cls-1" points="167.72 8.29 167.72 5.61 154.66 5.61 154.66 6.33 154.66 8.29 154.66 15.45 156.07 16.86 157.14 16.86 158.25 16.86 167.71 16.86 167.71 14.19 158.25 14.19 158.25 8.29 167.72 8.29"/><polygon class="cls-1" points="160.9 27.71 160.9 26.05 175.15 26.05 175.15 23.38 175.14 23.38 175.14 21.78 175.15 21.78 175.15 19.11 156.81 19.11 156.81 21.78 170.86 21.78 170.86 23.38 156.81 23.38 156.81 24.08 156.79 24.08 156.79 28.98 158.21 30.39 159.28 30.39 160.39 30.39 175.57 30.39 175.57 27.71 160.9 27.71"/><polygon class="cls-1" points="138 9.22 145.2 9.22 145.2 5.63 130.44 5.63 130.44 9.22 137.66 9.22 129.82 20.58 132.61 23.2 137.83 15.63 143.06 23.21 145.85 20.6 138 9.22"/><path class="cls-1" d="M241.28,5.68v6.08h-1.99c-.94-3.71-3.95-6.43-7.54-6.43-4.33,0-7.85,3.98-7.85,8.89s3.51,8.89,7.85,8.89c3.69,0,6.77-2.88,7.61-6.76h1.91v14.04h3.59V5.68h-3.59Zm-9.53,13.5c-2.11,0-3.82-2.22-3.82-4.96s1.71-4.96,3.82-4.96,3.82,2.22,3.82,4.96-1.71,4.96-3.82,4.96Z"/><g><path class="cls-1" d="M69.48,45.42h-2.12l-2.22-5.07-2.04,2.55v2.52h-1.9v-9.97h1.9v5.24c.24-.35,.42-.6,.52-.74l3.5-4.5h1.92l-2.5,3.28,2.94,6.69Z"/><path class="cls-1" d="M73.42,43.19c-.41-.62-.62-1.53-.62-2.74,0-2.48,.81-3.72,2.44-3.72,.82,0,1.43,.33,1.82,.98,.39,.65,.59,1.55,.59,2.69,0,1.41-.23,2.38-.71,2.92-.47,.53-1.05,.8-1.73,.8-.77,0-1.37-.31-1.78-.93Zm5.05,.95c.83-.94,1.24-2.18,1.24-3.72s-.4-2.69-1.19-3.67c-.79-.98-1.88-1.46-3.25-1.46s-2.45,.49-3.28,1.46c-.83,.98-1.24,2.19-1.24,3.64s.39,2.69,1.17,3.68c.78,.99,1.87,1.48,3.27,1.48s2.46-.47,3.28-1.42Z"/><path class="cls-1" d="M84.15,36.88h2.51c.59,0,1.05,.14,1.38,.41,.33,.27,.49,.62,.49,1.06,0,.48-.17,.85-.5,1.13-.34,.28-.84,.41-1.53,.41h-2.36v-3Zm4.47,4.14c1.27-.48,1.9-1.37,1.9-2.65,0-.86-.3-1.57-.9-2.11-.6-.54-1.53-.82-2.8-.82h-4.57v9.97h1.9v-4.1h2.67l1.64,4.1h2.01l-1.84-4.4Z"/><path class="cls-1" d="M100.04,45.42h-6.84v-9.97h6.78v1.49h-4.88v2.7h3.92v1.44h-3.92v2.79h4.95v1.54Z"/><path class="cls-1" d="M104.29,41.6l1.54-4.44,1.54,4.44h-3.07Zm2.92-6.16h-2.34l-3.5,9.97h1.62l.83-2.37h4.05l.84,2.37h2.03l-3.54-9.97Z"/><path class="cls-1" d="M119.43,36.86h1.8c.85,0,1.53,.34,2.05,1.01,.52,.67,.78,1.5,.78,2.48,0,1.19-.3,2.08-.89,2.69-.59,.61-1.31,.91-2.16,.91h-1.58v-7.09Zm1.51,8.55c1.66,0,2.95-.48,3.84-1.42,.9-.95,1.34-2.13,1.34-3.54s-.43-2.6-1.3-3.56c-.87-.96-2.02-1.44-3.46-1.44h-3.88v9.97h3.46Z"/><path class="cls-1" d="M130.57,45.42h-1.9v-9.97h1.9v9.97Z"/><path class="cls-1" d="M141.67,40.31v5.09h-.84l-.58-1.34c-.61,.99-1.56,1.49-2.85,1.49-1.43,0-2.51-.51-3.22-1.54-.71-1.03-1.06-2.22-1.06-3.58,0-1.43,.4-2.65,1.19-3.65,.79-1,1.89-1.5,3.31-1.5,1.06,0,1.93,.29,2.62,.88,.68,.58,1.12,1.31,1.3,2.17l-1.65,.28c-.31-1.21-1.05-1.82-2.22-1.82-.75,0-1.35,.29-1.82,.86-.47,.57-.71,1.46-.71,2.65,0,2.52,.83,3.77,2.5,3.77,.65,0,1.18-.21,1.61-.63,.43-.42,.64-.98,.64-1.68h-2.18v-1.44h3.96Z"/><path class="cls-1" d="M146.51,45.42h-1.9v-9.97h1.9v9.97Z"/><path class="cls-1" d="M153.31,45.42h-2.04v-8.43h-2.8v-1.54h7.64v1.54h-2.8v8.43Z"/><path class="cls-1" d="M159.05,41.6l1.54-4.44,1.53,4.44h-3.07Zm2.92-6.16h-2.34l-3.5,9.97h1.62l.83-2.37h4.05l.84,2.37h2.03l-3.53-9.97Z"/><path class="cls-1" d="M174.04,45.42h-6.48v-9.97h2v8.34h4.49v1.63Z"/><path class="cls-1" d="M191.29,45.42h-1.94v-8.73l-2.92,8.73h-1l-2.93-8.73v8.73h-1.55v-9.97h2.97l2.21,6.42,2.17-6.42h2.99v9.97Z"/><path class="cls-1" d="M201.25,45.42h-6.85v-9.97h6.78v1.49h-4.88v2.7h3.92v1.44h-3.92v2.79h4.95v1.54Z"/><path class="cls-1" d="M205.58,36.86h1.8c.85,0,1.54,.34,2.05,1.01,.52,.67,.78,1.5,.78,2.48,0,1.19-.3,2.08-.89,2.69-.59,.61-1.31,.91-2.16,.91h-1.58v-7.09Zm1.5,8.55c1.67,0,2.95-.48,3.84-1.42,.9-.95,1.34-2.13,1.34-3.54s-.44-2.6-1.31-3.56c-.87-.96-2.02-1.44-3.46-1.44h-3.88v9.97h3.46Z"/><path class="cls-1" d="M216.72,45.42h-1.9v-9.97h1.9v9.97Z"/><path class="cls-1" d="M221.64,41.6l1.54-4.44,1.54,4.44h-3.07Zm2.92-6.16h-2.34l-3.5,9.97h1.62l.83-2.37h4.05l.84,2.37h2.03l-3.53-9.97Z"/><path class="cls-1" d="M242.7,45.42h-1.9v-4.33h-4.02v4.33h-1.9v-9.97h1.9v4.1h4.02v-4.1h1.9v9.97Z"/><path class="cls-1" d="M247.71,45.42h-1.9v-9.97h1.9v9.97Z"/><path class="cls-1" d="M258.81,40.31v5.09h-.84l-.58-1.34c-.61,.99-1.56,1.49-2.85,1.49-1.44,0-2.51-.51-3.21-1.54-.71-1.03-1.06-2.22-1.06-3.58,0-1.43,.39-2.65,1.19-3.65,.79-1,1.89-1.5,3.31-1.5,1.06,0,1.93,.29,2.62,.88,.68,.58,1.12,1.31,1.3,2.17l-1.65,.28c-.31-1.21-1.05-1.82-2.22-1.82-.75,0-1.35,.29-1.82,.86-.47,.57-.71,1.46-.71,2.65,0,2.52,.83,3.77,2.5,3.77,.65,0,1.18-.21,1.61-.63,.42-.42,.64-.98,.64-1.68h-2.18v-1.44h3.96Z"/><path class="cls-1" d="M269.57,45.42h-1.9v-4.33h-4.02v4.33h-1.9v-9.97h1.9v4.1h4.02v-4.1h1.9v9.97Z"/><path class="cls-1" d="M276.32,43.01l1.85-.37c.22,.99,1.07,1.48,2.55,1.48,.67,0,1.19-.13,1.56-.38,.36-.26,.54-.57,.54-.94,0-.27-.08-.52-.25-.75-.16-.23-.52-.42-1.06-.55l-2.01-.5c-.69-.17-1.2-.36-1.53-.58-.33-.22-.59-.53-.79-.92-.2-.39-.3-.81-.3-1.26,0-.89,.35-1.61,1.05-2.15,.7-.54,1.6-.81,2.69-.81,.9,0,1.71,.19,2.43,.56,.71,.37,1.17,.91,1.36,1.59l-1.81,.42c-.28-.76-.92-1.13-1.94-1.13-.59,0-1.04,.12-1.36,.35-.31,.23-.47,.53-.47,.89,0,.57,.49,.97,1.47,1.2l1.79,.42c1.08,.26,1.81,.64,2.18,1.14,.37,.5,.56,1.06,.56,1.67,0,.98-.39,1.75-1.17,2.31-.78,.56-1.79,.83-3.03,.83-1.05,0-1.96-.2-2.75-.61-.79-.41-1.3-1.05-1.56-1.93Z"/><path class="cls-1" d="M293.13,41.95l1.76,.18c-.12,1-.52,1.82-1.22,2.47-.7,.64-1.62,.96-2.77,.96-.96,0-1.74-.22-2.34-.68-.6-.46-1.06-1.08-1.39-1.86-.32-.78-.48-1.65-.48-2.6,0-1.52,.38-2.75,1.14-3.71,.76-.95,1.81-1.43,3.14-1.43,1.04,0,1.91,.3,2.61,.91,.69,.61,1.13,1.49,1.31,2.62l-1.76,.17c-.32-1.5-1.04-2.25-2.15-2.25-.71,0-1.26,.31-1.65,.94-.39,.62-.59,1.53-.59,2.72s.21,2.12,.63,2.74c.42,.61,.98,.92,1.67,.92,.56,0,1.03-.21,1.42-.62,.39-.41,.61-.91,.66-1.48Z"/><path class="cls-1" d="M304.99,45.42h-1.9v-4.33h-4.02v4.33h-1.9v-9.97h1.9v4.1h4.02v-4.1h1.9v9.97Z"/><path class="cls-1" d="M310.22,43.19c-.42-.62-.62-1.53-.62-2.74,0-2.48,.81-3.72,2.44-3.72,.82,0,1.43,.33,1.82,.98,.39,.65,.59,1.55,.59,2.69,0,1.41-.24,2.38-.71,2.92-.47,.53-1.05,.8-1.74,.8-.77,0-1.37-.31-1.78-.93Zm5.05,.95c.83-.94,1.24-2.18,1.24-3.72s-.39-2.69-1.19-3.67c-.8-.98-1.88-1.46-3.25-1.46s-2.45,.49-3.28,1.46c-.83,.98-1.24,2.19-1.24,3.64s.38,2.69,1.17,3.68c.78,.99,1.87,1.48,3.27,1.48s2.46-.47,3.28-1.42Z"/><path class="cls-1" d="M321.19,43.19c-.41-.62-.62-1.53-.62-2.74,0-2.48,.81-3.72,2.44-3.72,.82,0,1.43,.33,1.82,.98,.39,.65,.58,1.55,.58,2.69,0,1.41-.24,2.38-.71,2.92-.47,.53-1.05,.8-1.74,.8-.77,0-1.37-.31-1.78-.93Zm5.05,.95c.83-.94,1.24-2.18,1.24-3.72s-.4-2.69-1.19-3.67c-.8-.98-1.88-1.46-3.25-1.46s-2.45,.49-3.28,1.46c-.83,.98-1.24,2.19-1.24,3.64s.39,2.69,1.17,3.68c.78,.99,1.87,1.48,3.27,1.48s2.46-.47,3.29-1.42Z"/><path class="cls-1" d="M336.5,45.42h-6.48v-9.97h2v8.34h4.48v1.63Z"/></g><path class="cls-1" d="M43.89,28.41c-1.79,9.04-9.77,15.86-19.34,15.86-10.89,0-19.71-8.83-19.71-19.71S13.66,4.84,24.55,4.84c6.34,0,11.97,2.99,15.58,7.64l-3.49,6.44c-2.12-4.55-6.74-7.71-12.09-7.71-7.37,0-13.34,5.97-13.34,13.34s5.97,13.34,13.34,13.34c5.07,0,9.47-2.83,11.73-6.99h0l6.91-12.77,2.9-5.36c-.97-1.76-2.14-3.4-3.5-4.86C38.12,3.05,31.69,0,24.55,0,10.99,0,0,10.99,0,24.55s10.99,24.55,24.55,24.55c12.05,0,22.06-8.68,24.15-20.12l-4.81-.58Zm-19.34,3.78c-4.22,0-7.64-3.42-7.64-7.64s3.42-7.64,7.64-7.64,7.64,3.42,7.64,7.64-3.42,7.64-7.64,7.64Z"/></g></g></svg>