<svg width="46" height="37" viewBox="0 0 46 37" fill="none" xmlns="http://www.w3.org/2000/svg">
<path d="M20.1422 1.01268C18.1197 1.01545 16.1372 1.59634 14.4125 2.69152C12.6878 3.78669 11.2878 5.35371 10.3664 7.22028H9.00088C7.95033 7.21987 6.91 7.43404 5.9393 7.85054C4.96861 8.26705 4.08659 8.87774 3.3436 9.64772C2.60061 10.4177 2.01122 11.3319 1.6091 12.3381C1.20698 13.3443 1 14.4227 1 15.5119C1 16.601 1.20698 17.6795 1.6091 18.6857C2.01122 19.6919 2.60061 20.6061 3.3436 21.3761C4.08659 22.146 4.96861 22.7567 5.9393 23.1732C6.91 23.5897 7.95033 23.8039 9.00088 23.8035H20.1544C23.0712 23.8035 25.8686 22.6022 27.9311 20.464C29.9935 18.3257 31.1522 15.4257 31.1522 12.4017C31.1522 9.37781 29.9935 6.47774 27.9311 4.3395C25.8686 2.20126 23.0712 1 20.1544 1L20.1422 1.01268Z" fill="#E7F2F5" stroke="#ABB4B7" stroke-width="2" stroke-miterlimit="10"/>
<path d="M30.6723 6.29224C28.0336 6.29167 25.446 7.04708 23.1953 8.47506C20.9446 9.90304 19.1183 11.948 17.918 14.3843H16.1369C13.3717 14.3843 10.7196 15.5232 8.76429 17.5503C6.80894 19.5775 5.71045 22.3269 5.71045 25.1938C5.71126 28.0601 6.81011 30.8087 8.76537 32.8352C10.7206 34.8617 13.3722 36.0001 16.1369 36.0001H30.6723C34.4722 36.0001 38.1165 34.4351 40.8035 31.6495C43.4905 28.8638 45 25.0857 45 21.1462C45 17.2067 43.4905 13.4285 40.8035 10.6429C38.1165 7.8572 34.4722 6.29224 30.6723 6.29224Z" fill="#E7F2F5" stroke="#909999" stroke-width="2" stroke-miterlimit="10"/>
</svg>
