<svg width="25" height="25" viewBox="0 0 25 25" fill="none" xmlns="http://www.w3.org/2000/svg">
<path d="M22.5305 14.4645C22.0802 16.7146 20.8669 18.744 19.0924 20.2155C17.3179 21.687 15.089 22.5119 12.7763 22.553C10.4635 22.5942 8.20626 21.8491 6.37968 20.4416C4.5531 19.0342 3.26725 17.0492 2.73589 14.8166C2.20452 12.5839 2.45964 10.2382 3.45884 8.16931C4.45804 6.10041 6.14113 4.43296 8.22832 3.44417C10.3155 2.45537 12.6811 2.20478 14.9318 2.73405C17.1825 3.26332 19.1827 4.54058 20.6 6.35349L18.8082 9.63251C18.1564 8.24768 17.0526 7.12134 15.6755 6.43556C14.2983 5.74979 12.7281 5.54466 11.2188 5.85334C9.70957 6.16203 8.34937 6.96648 7.35813 8.13665C6.36689 9.30683 5.80255 10.7743 5.75634 12.3019C5.71013 13.8295 6.18475 15.328 7.10347 16.555C8.02219 17.782 9.33132 18.6658 10.8192 19.0637C12.3071 19.4615 13.8869 19.3501 15.303 18.7474C16.7192 18.1448 17.889 17.0861 18.6234 15.7425L22.1762 9.23536L23.6651 6.50624C22.2401 3.91987 19.9394 1.91604 17.1693 0.848614C14.3991 -0.218816 11.3378 -0.28119 8.52578 0.672507C5.71378 1.6262 3.33202 3.53463 1.80109 6.06077C0.270159 8.58692 -0.311473 11.5683 0.158904 14.4784C0.62928 17.3886 2.12141 20.0403 4.3718 21.9653C6.62219 23.8904 9.48609 24.9649 12.4578 24.9992C15.4295 25.0334 18.3178 24.0252 20.6127 22.1526C22.9076 20.28 24.4615 17.6634 25 14.7649L22.5305 14.4645ZM12.6011 16.3891C11.8253 16.3891 11.0669 16.161 10.4219 15.7335C9.7768 15.3061 9.27405 14.6986 8.97717 13.9878C8.68028 13.277 8.6026 12.4948 8.75395 11.7402C8.9053 10.9856 9.27888 10.2925 9.82745 9.74845C10.376 9.20442 11.0749 8.83394 11.8358 8.68384C12.5967 8.53374 13.3854 8.61078 14.1021 8.9052C14.8189 9.19963 15.4315 9.69822 15.8625 10.3379C16.2935 10.9776 16.5235 11.7297 16.5235 12.4991C16.5235 13.5308 16.1103 14.5203 15.3747 15.2498C14.6391 15.9793 13.6414 16.3891 12.6011 16.3891Z" fill="#ED1280"/>
</svg>
